<?xml version="1.0" standalone="no"?>
<!DOCTYPE svg PUBLIC "-//W3C//DTD SVG 20010904//EN"
 "http://www.w3.org/TR/2001/REC-SVG-20010904/DTD/svg10.dtd">
<svg version="1.0" xmlns="http://www.w3.org/2000/svg"
 width="3445.000000pt" height="1440.000000pt" viewBox="0 0 3445.000000 1440.000000"
 preserveAspectRatio="xMidYMid meet">

<g transform="translate(0.000000,1440.000000) scale(0.100000,-0.100000)"
fill="#000000" stroke="none">
<path d="M4525 13806 c-193 -53 -362 -181 -464 -350 -25 -42 -2146 -5268
-3423 -8434 -131 -325 -150 -380 -151 -430 -1 -98 62 -198 151 -240 35 -16
555 -17 9962 -17 9559 0 9927 1 9990 18 214 60 393 202 489 386 32 63 3461
8522 3539 8731 53 142 -4 278 -143 341 -39 18 -381 19 -9955 18 l-9915 0 -80
-23z m10390 -2417 c443 -29 831 -153 1110 -354 162 -116 193 -156 202 -255 7
-70 -9 -120 -50 -167 -84 -96 -198 -85 -362 34 -260 189 -594 289 -995 300
-218 6 -354 -10 -520 -62 -316 -99 -541 -316 -595 -573 -42 -201 3 -443 106
-573 60 -76 222 -173 373 -224 41 -14 231 -61 423 -105 191 -44 404 -96 472
-116 445 -129 723 -331 860 -626 67 -142 76 -188 75 -398 0 -167 -3 -195 -26
-281 -53 -194 -139 -341 -293 -494 -199 -200 -469 -335 -809 -406 -573 -119
-1358 -6 -1801 259 -111 67 -223 151 -243 184 -49 78 -37 206 26 278 86 102
172 95 368 -27 325 -204 688 -293 1194 -294 306 -1 476 33 675 131 199 98 327
234 381 403 70 224 28 437 -118 593 -70 75 -120 111 -216 159 -122 60 -242 95
-712 210 -539 131 -640 166 -835 293 -89 58 -240 209 -284 285 -50 85 -97 218
-115 326 -20 119 -21 329 -1 441 90 510 526 899 1152 1026 102 20 167 28 378
43 11 0 92 -4 180 -10z m6016 -55 c226 -67 379 -267 379 -499 0 -232 -153
-432 -379 -499 -31 -9 -91 -16 -138 -16 -214 0 -404 132 -484 337 -31 80 -38
228 -14 309 66 231 263 383 496 384 50 0 108 -7 140 -16z m-12054 -22 c24 -12
50 -34 59 -48 43 -65 21 -206 -42 -269 -75 -75 12 -70 -1159 -73 l-1050 -2
-113 -713 c-63 -391 -116 -720 -118 -729 -5 -17 51 -18 973 -20 970 -3 978 -3
1018 -24 61 -32 85 -74 85 -151 0 -107 -42 -175 -135 -219 l-50 -24 -980 0
-980 0 -120 -737 c-65 -406 -121 -750 -123 -765 l-4 -28 1039 0 1039 0 44 -22
c64 -33 90 -76 90 -152 0 -71 -23 -127 -68 -173 -68 -67 10 -64 -1307 -61
l-1190 3 -42 22 c-60 33 -93 80 -105 155 -10 60 4 158 291 1953 166 1040 307
1906 313 1925 27 85 96 149 183 171 17 4 566 6 1220 6 l1190 -2 42 -23z m2821
0 c455 -90 747 -299 884 -634 111 -272 110 -697 -2 -1013 -68 -191 -144 -310
-295 -461 -210 -211 -428 -317 -790 -386 -104 -20 -149 -21 -867 -25 l-758 -4
-5 -22 c-2 -12 -59 -359 -125 -772 -113 -705 -122 -754 -153 -815 -29 -58 -38
-67 -91 -95 -52 -26 -69 -30 -136 -29 -168 3 -247 108 -221 296 6 40 143 910
306 1932 213 1341 301 1872 316 1905 32 72 83 118 159 142 14 4 394 7 845 5
801 -2 823 -3 933 -24z m8163 13 c83 -29 111 -73 110 -168 -1 -100 -49 -175
-136 -214 -38 -17 -103 -18 -1087 -21 l-1047 -2 -6 -33 c-14 -82 -225 -1408
-225 -1417 0 -7 308 -10 953 -10 535 0 969 -4 991 -10 45 -10 81 -34 110 -74
17 -22 21 -42 21 -99 -1 -85 -25 -141 -80 -183 -73 -55 -32 -53 -1087 -54
l-976 0 -6 -27 c-14 -71 -236 -1463 -236 -1482 l0 -21 1038 0 1037 -1 45 -22
c141 -71 105 -305 -57 -374 -27 -11 -245 -13 -1211 -13 -1304 0 -1235 -3
-1304 64 -40 39 -58 92 -58 169 0 41 510 3279 592 3757 14 87 42 143 91 186
78 66 12 63 1308 63 1033 1 1182 -1 1220 -14z"/>
<path d="M20655 11273 c-126 -45 -219 -127 -274 -243 -35 -73 -36 -78 -36
-195 1 -113 2 -124 32 -187 77 -165 236 -268 413 -268 306 0 522 278 445 575
-33 127 -130 241 -253 298 -59 27 -79 31 -172 34 -82 3 -116 -1 -155 -14z
m243 -208 c58 -24 86 -65 87 -129 0 -61 -30 -111 -81 -132 l-34 -14 70 -96
c39 -53 70 -101 70 -106 0 -5 -23 -8 -52 -6 l-52 3 -69 98 c-60 85 -72 97 -98
97 l-29 0 0 -100 0 -100 -45 0 -45 0 0 256 0 257 118 -5 c78 -4 131 -11 160
-23z"/>
<path d="M20710 10929 l0 -71 71 4 c60 3 74 8 90 27 25 30 24 66 -1 91 -16 16
-33 20 -90 20 l-70 0 0 -71z"/>
<path d="M10072 10078 c-73 -469 -133 -859 -132 -866 0 -22 1287 -11 1421 11
268 45 414 112 564 262 76 75 98 105 138 185 79 159 114 341 104 545 -21 431
-250 653 -725 704 -63 7 -324 11 -670 11 l-567 0 -133 -852z"/>
<path d="M25994 13806 c-209 -57 -392 -205 -487 -392 -14 -27 -298 -719 -632
-1539 -334 -819 -609 -1494 -612 -1500 -2 -5 4 1 14 15 152 209 196 267 255
337 144 170 322 324 503 434 222 135 524 210 796 196 683 -34 1201 -486 1736
-1514 l79 -152 97 239 97 239 0 871 0 870 25 0 25 0 2 -803 3 -803 585 1435
c801 1965 722 1765 723 1836 1 97 -54 184 -145 229 l-52 26 -1465 -1 -1466 0
-81 -23z"/>
<path d="M30585 13806 c-213 -58 -386 -196 -484 -386 -21 -41 -407 -977 -856
-2080 -450 -1103 -831 -2038 -848 -2079 -29 -70 -30 -74 -13 -87 20 -14 110
-36 251 -61 79 -14 280 -17 1721 -20 l1632 -4 15 38 c1729 4235 1779 4358
1784 4424 3 39 1 81 -6 102 -20 59 -76 122 -133 151 l-52 26 -1465 -1 -1466 0
-80 -23z"/>
<path d="M25569 11199 c-430 -63 -804 -346 -1156 -874 -142 -212 -270 -441
-463 -831 -105 -209 -190 -385 -190 -392 0 -15 2999 -17 3185 -2 164 14 324
45 425 84 l85 33 59 148 59 147 -88 172 c-185 357 -380 675 -531 866 -96 120
-324 344 -421 413 -165 117 -366 201 -555 232 -99 16 -315 18 -409 4z"/>
<path d="M23711 9018 c-5 -13 -403 -988 -884 -2168 -480 -1180 -879 -2160
-885 -2179 -40 -115 18 -253 131 -314 l42 -22 1475 0 c1656 0 1516 -6 1685 75
148 71 271 189 344 330 22 41 337 806 701 1700 364 894 747 1834 852 2089 104
255 188 465 186 466 -2 2 -40 13 -85 24 -81 21 -91 21 -1817 21 l-1736 0 -9
-22z"/>
<path d="M28470 9024 c-73 -19 -188 -64 -199 -78 -5 -6 -35 -75 -66 -153 l-56
-141 90 -179 c424 -837 827 -1301 1269 -1463 182 -66 230 -74 442 -75 269 0
380 24 597 131 344 169 635 491 971 1074 81 142 386 743 429 848 l22 52 -1722
-1 c-1477 0 -1730 -2 -1777 -15z"/>
<path d="M27982 8242 l-92 -227 0 -882 0 -883 -25 0 -25 0 -2 815 -3 816 -612
-1503 c-337 -827 -634 -1554 -659 -1617 -54 -134 -60 -201 -25 -275 27 -55 81
-111 129 -134 35 -16 131 -17 1507 -17 1662 0 1526 -6 1702 82 142 70 269 197
340 338 16 31 1175 2864 1201 2935 3 8 -28 -30 -68 -85 -388 -533 -810 -799
-1305 -822 -424 -19 -796 127 -1139 448 -233 218 -508 615 -758 1096 l-74 142
-92 -227z"/>
<path d="M8017 2925 c-80 -28 -119 -88 -120 -180 -1 -129 73 -196 218 -196
140 0 216 64 217 185 1 136 -74 207 -222 206 -30 -1 -72 -7 -93 -15z"/>
<path d="M22996 2926 c-87 -33 -136 -122 -122 -221 16 -102 94 -157 222 -157
143 1 214 66 214 196 0 77 -22 121 -77 160 -36 25 -53 30 -120 33 -51 2 -91
-2 -117 -11z"/>
<path d="M29998 2926 c-88 -32 -127 -88 -128 -179 0 -129 77 -199 220 -199
112 0 171 33 205 115 38 91 4 203 -74 246 -55 30 -167 39 -223 17z"/>
<path d="M1055 2909 c-294 -43 -510 -182 -604 -390 -38 -85 -51 -151 -51 -262
0 -252 122 -421 374 -518 44 -17 194 -55 331 -85 290 -62 371 -86 434 -128
145 -98 120 -318 -48 -409 -73 -40 -166 -57 -317 -57 -209 0 -340 30 -536 122
-138 65 -161 67 -214 26 -32 -26 -64 -92 -64 -133 0 -40 31 -104 66 -137 61
-56 243 -133 387 -164 186 -39 456 -48 606 -19 306 59 516 229 578 468 22 88
20 235 -5 314 -53 167 -180 276 -408 352 -49 16 -187 50 -306 76 -238 50 -322
74 -383 110 -84 48 -115 107 -115 214 0 56 5 79 28 122 73 140 265 207 515
181 147 -15 212 -33 331 -90 74 -35 111 -47 145 -47 80 0 131 58 131 150 0 84
-34 124 -166 192 -195 101 -478 145 -709 112z"/>
<path d="M4192 2909 c-58 -11 -97 -41 -116 -89 -14 -36 -16 -128 -16 -841 0
-704 2 -809 16 -872 53 -231 181 -345 414 -367 97 -9 234 4 267 26 41 26 57
72 58 160 0 67 -3 86 -19 103 -18 20 -27 21 -85 16 -126 -12 -204 24 -249 115
l-27 55 -5 790 c-5 724 -6 793 -22 822 -24 42 -63 71 -107 79 -20 3 -43 7 -51
9 -8 1 -34 -1 -58 -6z"/>
<path d="M15175 2914 c-132 -19 -247 -74 -332 -159 -103 -103 -139 -207 -131
-375 7 -137 55 -244 172 -384 38 -45 40 -49 22 -60 -167 -100 -307 -238 -366
-360 -46 -98 -60 -160 -60 -275 0 -143 40 -247 136 -351 128 -137 327 -210
578 -211 227 -1 409 59 586 192 l82 62 91 -95 c51 -53 110 -107 132 -122 102
-66 249 -32 275 64 17 64 -5 99 -160 255 l-139 140 54 109 c64 130 107 254
134 391 40 205 35 260 -29 303 -30 21 -44 23 -104 20 -66 -4 -71 -6 -102 -42
-26 -30 -35 -53 -45 -109 -30 -180 -101 -425 -128 -441 -4 -3 -99 92 -210 210
l-202 216 75 52 c165 113 250 213 297 346 32 91 32 250 1 331 -53 135 -140
215 -283 264 -69 22 -105 28 -199 30 -63 2 -128 1 -145 -1z m229 -281 c75 -38
106 -93 106 -189 0 -115 -54 -190 -211 -295 l-74 -50 -38 43 c-55 61 -115 154
-127 197 -32 117 12 240 102 287 69 35 180 39 242 7z m-10 -1167 l256 -264
-36 -31 c-19 -18 -54 -43 -76 -57 -201 -127 -523 -105 -631 44 -49 67 -60 110
-55 207 5 99 37 172 104 239 42 42 158 126 174 126 4 0 123 -119 264 -264z"/>
<path d="M17654 2871 c-47 -22 -80 -59 -95 -110 -7 -24 -9 -334 -7 -956 l3
-920 24 -38 c12 -21 42 -48 65 -60 l41 -22 600 0 600 0 36 23 c44 27 61 64 61
131 -1 60 -17 97 -55 125 -28 21 -39 21 -518 24 l-489 3 0 309 0 309 454 3
c442 3 455 4 483 24 86 63 82 207 -7 259 -34 19 -54 20 -482 23 l-448 3 0 295
0 294 484 0 483 0 34 23 c49 33 60 61 57 139 -3 49 -9 72 -23 89 -44 49 -44
49 -672 49 -551 0 -591 -2 -629 -19z"/>
<path d="M6955 2685 c-79 -35 -95 -84 -95 -285 l0 -158 -107 -4 c-78 -3 -117
-9 -141 -22 -85 -45 -80 -195 8 -238 26 -14 60 -18 137 -18 l102 0 4 -402 c4
-434 5 -447 61 -558 38 -75 77 -121 139 -164 115 -79 295 -113 480 -89 107 13
141 26 169 63 27 37 42 137 28 189 -16 59 -39 67 -143 52 -157 -23 -269 12
-321 102 -38 64 -46 148 -46 495 l0 312 180 0 c253 0 290 18 290 144 0 44 -5
60 -26 85 -36 43 -77 51 -271 51 l-173 0 0 167 c0 200 -12 237 -84 272 -49 24
-143 27 -191 6z"/>
<path d="M2853 2261 c-72 -12 -188 -48 -248 -78 -160 -80 -287 -244 -341 -438
-22 -80 -30 -305 -14 -404 36 -227 165 -418 345 -513 123 -64 238 -89 410 -89
356 1 618 192 705 516 33 121 38 312 12 437 -60 291 -247 488 -522 552 -79 19
-276 28 -347 17z m197 -282 c79 -12 148 -49 200 -105 80 -86 111 -190 111
-369 0 -236 -66 -377 -209 -447 -61 -30 -74 -33 -163 -33 -90 0 -100 2 -164
35 -121 62 -183 162 -206 336 -39 294 69 524 271 578 68 18 79 18 160 5z"/>
<path d="M9208 2254 c-156 -28 -284 -92 -380 -191 -139 -143 -207 -323 -208
-553 -1 -478 289 -771 762 -771 227 0 392 64 535 206 65 66 89 99 121 166 65
136 77 198 77 394 0 148 -3 180 -23 250 -49 167 -150 309 -283 395 -155 100
-394 142 -601 104z m317 -304 c154 -72 218 -200 219 -440 2 -241 -68 -387
-216 -456 -56 -26 -74 -29 -158 -29 -114 1 -163 19 -241 92 -94 87 -129 193
-129 388 0 231 66 372 210 445 92 47 215 47 315 0z"/>
<path d="M11195 2259 c-149 -23 -286 -101 -356 -203 -13 -20 -27 -36 -31 -36
-5 0 -8 27 -8 60 0 126 -67 186 -196 178 -68 -4 -101 -21 -138 -72 -21 -27
-21 -37 -21 -680 l0 -652 27 -41 c64 -97 240 -97 312 0 20 28 21 42 27 450 5
438 7 458 51 541 21 40 94 109 140 132 89 45 239 50 316 10 37 -19 78 -67 97
-113 27 -64 35 -197 35 -583 0 -380 1 -386 23 -425 63 -113 262 -113 321 0 20
38 21 57 24 470 3 455 -3 548 -41 664 -49 149 -157 253 -294 285 -90 20 -214
27 -288 15z"/>
<path d="M12633 2255 c-240 -43 -399 -160 -448 -330 -23 -79 -17 -221 12 -287
42 -93 140 -174 258 -212 28 -9 133 -32 235 -51 231 -44 271 -57 309 -100 56
-64 50 -146 -15 -209 -48 -47 -116 -66 -234 -66 -131 0 -242 22 -377 76 -62
24 -119 44 -128 44 -29 0 -76 -31 -95 -63 -101 -166 186 -318 599 -318 161 0
261 19 367 71 104 50 175 119 218 209 26 57 31 80 34 166 3 85 0 109 -18 159
-27 71 -74 125 -149 170 -74 45 -151 67 -378 111 -103 20 -207 45 -230 55 -70
31 -103 104 -83 181 26 95 122 143 280 143 108 -1 181 -17 305 -69 109 -45
144 -45 190 -2 63 58 64 155 2 200 -45 33 -160 83 -232 101 -68 18 -226 36
-300 35 -27 0 -82 -7 -122 -14z"/>
<path d="M20070 2260 c-138 -22 -237 -76 -330 -178 l-60 -65 0 50 c0 127 -63
193 -183 193 -69 0 -134 -33 -159 -80 -17 -33 -18 -75 -18 -673 0 -707 -2
-681 66 -733 33 -26 46 -29 108 -29 85 0 141 25 171 76 19 32 20 57 25 454 5
376 7 425 24 470 54 146 175 228 336 228 91 0 144 -17 189 -62 74 -74 74 -80
81 -591 5 -454 5 -455 28 -496 36 -61 72 -79 163 -79 68 0 79 3 113 29 69 52
70 59 74 456 4 417 -7 604 -43 717 -51 164 -146 257 -301 298 -72 19 -214 26
-284 15z"/>
<path d="M21515 2255 c-38 -9 -111 -35 -161 -60 -73 -36 -104 -58 -157 -115
-147 -156 -217 -397 -188 -650 23 -197 82 -331 196 -446 78 -78 172 -133 276
-161 97 -26 275 -23 359 6 120 42 218 112 287 206 l22 30 0 -100 c1 -204 -29
-313 -104 -387 -80 -79 -173 -103 -365 -95 -146 6 -231 25 -354 79 -109 48
-159 38 -214 -43 -19 -27 -23 -43 -19 -81 6 -70 28 -95 120 -138 150 -70 321
-102 557 -103 188 -2 275 15 405 78 185 89 294 253 325 487 7 55 10 308 8 740
-3 645 -3 657 -24 684 -40 54 -70 68 -147 72 -60 2 -79 -1 -112 -20 -53 -30
-85 -93 -86 -168 0 -55 0 -55 -16 -30 -58 87 -175 169 -293 204 -80 24 -230
29 -315 11z m303 -274 c163 -24 278 -141 312 -319 18 -89 8 -252 -19 -323 -69
-180 -184 -256 -375 -247 -110 5 -166 27 -230 91 -105 106 -150 293 -115 483
29 157 146 287 282 314 57 11 73 11 145 1z"/>
<path d="M24435 2259 c-135 -20 -242 -76 -331 -173 l-64 -70 0 59 c0 120 -63
185 -180 185 -77 0 -133 -30 -159 -84 -21 -41 -21 -57 -21 -672 l0 -630 23
-44 c32 -64 90 -93 174 -87 74 5 120 29 148 77 19 33 20 56 25 455 6 407 6
422 29 477 27 70 102 155 162 185 61 30 161 45 231 33 97 -15 140 -48 180
-135 23 -49 23 -56 28 -510 4 -402 7 -464 21 -490 67 -121 263 -129 330 -12
l24 42 0 470 c0 405 -3 480 -17 543 -54 233 -177 350 -403 382 -81 11 -117 11
-200 -1z"/>
<path d="M25985 2260 c-240 -38 -426 -170 -532 -376 -49 -97 -71 -174 -82
-293 -34 -367 123 -658 423 -784 218 -92 524 -91 761 2 174 68 240 160 190
266 -33 68 -104 77 -213 27 -111 -51 -196 -72 -317 -79 -286 -14 -447 104
-490 360 l-6 37 486 0 c523 0 523 0 559 52 29 42 14 220 -30 356 -50 153 -168
298 -294 362 -125 63 -313 92 -455 70z m256 -261 c52 -18 117 -66 150 -112 31
-43 62 -131 73 -209 l7 -48 -376 0 -375 0 6 28 c19 83 29 112 57 165 50 96
142 164 250 187 50 11 160 5 208 -11z"/>
<path d="M27625 2260 c-225 -35 -402 -151 -516 -339 -111 -182 -137 -468 -64
-697 97 -307 374 -483 760 -485 169 0 312 30 440 93 89 45 121 73 140 122 22
57 14 106 -24 148 -41 46 -101 45 -202 -3 -121 -58 -194 -74 -349 -73 -117 0
-143 3 -193 23 -139 55 -229 171 -252 324 l-7 47 488 0 c464 0 491 1 520 19
48 29 58 72 45 189 -15 133 -34 202 -83 301 -52 103 -153 210 -243 258 -123
65 -314 95 -460 73z m271 -269 c98 -44 149 -105 185 -222 11 -34 19 -78 19
-100 l0 -39 -370 0 c-289 0 -370 3 -370 13 0 6 6 35 14 62 55 208 205 323 404
310 41 -3 94 -14 118 -24z"/>
<path d="M29448 2250 c-122 -25 -206 -70 -275 -143 -30 -34 -60 -73 -65 -89
-17 -49 -28 -31 -28 47 0 101 -23 149 -87 177 -35 15 -61 19 -109 16 -68 -4
-101 -21 -138 -72 -21 -27 -21 -37 -21 -679 0 -634 1 -653 20 -685 30 -50 76
-74 153 -79 85 -6 145 22 176 82 20 38 21 60 27 440 3 241 9 412 16 431 49
141 155 213 361 244 132 20 148 26 186 71 22 26 26 40 26 95 0 72 -15 111 -56
143 -33 26 -70 26 -186 1z"/>
<path d="M31434 2261 c-143 -23 -277 -96 -348 -190 l-41 -55 -7 67 c-12 120
-58 169 -166 175 -87 4 -147 -24 -177 -83 -19 -39 -20 -60 -20 -670 0 -702 -2
-675 69 -730 82 -63 239 -34 282 51 18 36 19 70 24 459 5 410 6 421 28 478 28
68 105 151 167 178 143 63 325 33 382 -63 47 -79 47 -81 53 -558 5 -436 6
-457 26 -495 59 -113 257 -113 322 0 l22 40 -3 495 c-2 437 -5 502 -20 555
-54 183 -154 288 -312 329 -75 19 -214 27 -281 17z"/>
<path d="M32920 2264 c-199 -36 -348 -132 -444 -288 -121 -194 -150 -498 -71
-731 72 -213 231 -368 429 -419 244 -64 526 20 632 188 16 25 33 45 38 46 5 0
7 -60 3 -143 -9 -196 -29 -261 -105 -336 -85 -84 -127 -96 -327 -96 -175 0
-242 13 -389 76 -82 35 -123 38 -167 13 -66 -39 -88 -143 -45 -210 36 -54 231
-126 421 -154 125 -19 375 -17 470 4 247 54 408 207 477 453 22 76 22 94 26
758 2 504 0 691 -9 723 -14 51 -64 98 -114 108 -58 10 -143 -1 -172 -22 -50
-37 -64 -67 -71 -145 l-7 -74 -33 48 c-54 77 -160 148 -272 181 -54 16 -223
29 -270 20z m367 -320 c143 -69 213 -204 213 -407 0 -150 -43 -271 -126 -354
-73 -72 -118 -88 -254 -88 -106 0 -120 2 -172 28 -132 65 -207 212 -208 409 0
149 33 255 108 338 107 121 281 151 439 74z"/>
<path d="M5110 2249 c-46 -18 -79 -60 -91 -113 -7 -35 -10 -190 -7 -501 4
-424 5 -455 26 -528 47 -172 140 -283 274 -330 94 -33 131 -39 247 -38 170 0
306 63 400 184 l46 59 6 -64 c7 -83 32 -127 89 -156 80 -41 193 -18 244 51 21
28 21 33 21 687 0 650 0 659 -21 686 -43 58 -69 69 -159 69 -90 0 -116 -11
-159 -69 -20 -26 -21 -44 -27 -449 -6 -427 -8 -458 -46 -531 -25 -48 -95 -116
-148 -144 -44 -24 -61 -27 -150 -27 -115 0 -164 19 -210 79 -56 74 -58 92 -63
581 -4 513 -3 504 -85 544 -47 23 -142 28 -187 10z"/>
<path d="M8020 2237 c-28 -15 -51 -37 -64 -62 -21 -39 -21 -51 -21 -675 0
-617 1 -636 20 -669 39 -67 114 -95 205 -79 59 11 90 34 118 89 l22 44 -2 630
-3 630 -23 37 c-46 75 -166 101 -252 55z"/>
<path d="M23000 2238 c-26 -14 -53 -37 -65 -58 -19 -34 -20 -54 -23 -655 -2
-424 0 -632 8 -657 23 -80 83 -120 179 -120 70 1 115 23 148 73 l28 43 3 615
c2 441 0 628 -9 658 -12 45 -58 96 -102 112 -47 18 -119 13 -167 -11z"/>
<path d="M30025 2253 c-36 -9 -87 -55 -104 -92 -14 -32 -16 -104 -19 -619 -2
-376 1 -603 8 -640 18 -100 67 -144 165 -150 85 -6 141 20 176 81 l24 42 2
610 c3 688 4 680 -69 738 -30 24 -47 30 -100 33 -35 1 -72 0 -83 -3z"/>
</g>
</svg>
